<mxfile host="65bd71144e">
    <diagram id="UCc6ggqtKMQ5xO2U0TkA" name="Page-1">
        <mxGraphModel dx="788" dy="1059" grid="0" gridSize="10" guides="1" tooltips="1" connect="1" arrows="1" fold="1" page="0" pageScale="1" pageWidth="850" pageHeight="1100" math="0" shadow="0">
            <root>
                <mxCell id="0"/>
                <mxCell id="1" parent="0"/>
                <mxCell id="34" value="" style="rounded=0;whiteSpace=wrap;html=1;" vertex="1" parent="1">
                    <mxGeometry x="18" y="-217" width="771" height="782" as="geometry"/>
                </mxCell>
                <mxCell id="13" value="" style="edgeStyle=none;html=1;" edge="1" parent="1" source="10" target="2">
                    <mxGeometry relative="1" as="geometry">
                        <mxPoint x="299" y="-86" as="targetPoint"/>
                    </mxGeometry>
                </mxCell>
                <mxCell id="2" value="1" style="whiteSpace=wrap;html=1;aspect=fixed;fillColor=#fff2cc;strokeColor=#d6b656;" vertex="1" parent="1">
                    <mxGeometry x="378" y="-104" width="80" height="80" as="geometry"/>
                </mxCell>
                <mxCell id="3" value="2" style="whiteSpace=wrap;html=1;aspect=fixed;fillColor=#fff2cc;strokeColor=#d6b656;" vertex="1" parent="1">
                    <mxGeometry x="458" y="-104" width="80" height="80" as="geometry"/>
                </mxCell>
                <mxCell id="4" value="3" style="whiteSpace=wrap;html=1;aspect=fixed;fillColor=#fff2cc;strokeColor=#d6b656;" vertex="1" parent="1">
                    <mxGeometry x="538" y="-104" width="80" height="80" as="geometry"/>
                </mxCell>
                <mxCell id="5" value="4" style="whiteSpace=wrap;html=1;aspect=fixed;fillColor=#fff2cc;strokeColor=#d6b656;" vertex="1" parent="1">
                    <mxGeometry x="618" y="-104" width="80" height="80" as="geometry"/>
                </mxCell>
                <mxCell id="10" value="Front" style="text;html=1;align=center;verticalAlign=middle;whiteSpace=wrap;rounded=0;fillColor=#dae8fc;strokeColor=#6c8ebf;" vertex="1" parent="1">
                    <mxGeometry x="388" y="-180" width="60" height="30" as="geometry"/>
                </mxCell>
                <mxCell id="11" value="Back" style="text;html=1;align=center;verticalAlign=middle;whiteSpace=wrap;rounded=0;fillColor=#dae8fc;strokeColor=#6c8ebf;" vertex="1" parent="1">
                    <mxGeometry x="628" y="-180" width="60" height="30" as="geometry"/>
                </mxCell>
                <mxCell id="15" value="" style="endArrow=classic;html=1;" edge="1" parent="1" source="11" target="5">
                    <mxGeometry width="50" height="50" relative="1" as="geometry">
                        <mxPoint x="379" y="91" as="sourcePoint"/>
                        <mxPoint x="429" y="41" as="targetPoint"/>
                    </mxGeometry>
                </mxCell>
                <mxCell id="16" value="&lt;b&gt;EnQueue()&lt;/b&gt;" style="text;html=1;align=center;verticalAlign=middle;whiteSpace=wrap;rounded=0;fillColor=#dae8fc;strokeColor=#6c8ebf;" vertex="1" parent="1">
                    <mxGeometry x="382" y="191" width="60" height="30" as="geometry"/>
                </mxCell>
                <mxCell id="17" value="" style="shape=image;verticalLabelPosition=bottom;labelBackgroundColor=default;verticalAlign=top;aspect=fixed;imageAspect=0;image=data:image/png,iVBORw0KGgoAAAANSUhEUgAAAWgAAAGICAYAAABsoXpXAAAAAXNSR0IArs4c6QAAAARnQU1BAACxjwv8YQUAAAAJcEhZcwAADsMAAA7DAcdvqGQAAE8fSURBVHhe7d1/cBP3nT/+p2zJsmRJyJZlCVCMMTaxiYWLASMonD8k4eoADXHK9+J8+Za7mNCGa2fib1Jy489N6YVMhrnSZpK59mh+0WtaviF3mRCOhNIjxR8nHBGYQo0JcTAV4BNBlm0s/5Isy8bfP+xddlcrWRayWXlfjxnN2O9d7a5Wq6feeu97961YuHDhKAghhEhOirCAEEKINFBAE0KIRFFAE0KIRFFAE0KIRFFAE0KIRFFAE0KIRFFAE0KIRFFAE0KIRFFAE0KIRCkScSWhTqfD2rVrsWTJEphMJqSlpQEAhoaG0NXVhTNnzqC+vh7BYFD4VEIIIRHcVUArFAp861vfwiOPPMKGciR9fX34+OOP0dDQIJxECCFERKrJZPonYWEsFAoFtm7dioceeghKpRIAMDo6ikAggK+//hr9/f1Qq9XsNLVajeLiYqSkpODy5cuCpRFCCBGKuwa9fv16bNiwASkpY83Y7e3tOHDgAFpbW3nzLV68GNXV1cjMzAQADA4O4t/+7d/Q1NTEm48QQghfXCcJLRYLvvnNb/LC+V/+5V/CwhkALly4gF/84he4desWACA9PT2mJhFCCJG7uGrQ69evx8aNG6FQKBAIBPDGG2+gpaVFOBvPunXr8NhjjyElJQXBYBBvv/02mpubAQA1NTVYvnw5AKCxsRH79+/nPddoNOK5556D2WzG0NAQDhw4gDNnzvDmAYCSkhJUVlbivvvuQ1paGkZHR9Hb24tTp07h448/xsjICDtvZWUlNm3aBABwuVzYu3cvZ0ljdu7cifz8fADA4cOHcezYMeEsyM3NxaOPPooFCxYgPT0do6Oj8Pv9+POf/4wPP/wQ/f39wqcQQkhM4qpBFxQUQKFQAACuX7+Or776SjhLmKamJvh8PmC8PbqgoEA4S9wUCgW2bNmCHTt2YMGCBWztXKFQYNasWXjkkUfwwgsvwGQyCZ96V771rW/h+eefxwMPPID09HRgfJ0ZGRn45je/ibq6OsyfP1/4NEIIicmkA9poNCI7O5v9v62tDaOjE1fCvV4vG9AAkJWVxZt+NzZu3IhVq1YhJSWF7S2yZ88evPvuu2zTSm5uLltjTgSHw4H169cjLS0NQ0NDqK+vx09/+lO8+eabuHHjBkZHR5GVlYXHH3+cmnMIIXGZdEBrNBpe4AQCAd70aLg/9xMV0DabDatXr2bD+Y033sBHH32EtrY2fPrpp9i3bx96e3sBAPfffz9sNptwEZOm0+nw13/912w4v/vuu/j3f/93XL16FefOncOrr74Kj8cDjH8xFBcXCxdBCCETmnRAq1QqqFQqYXFMhoaG2L9v377NmxavxYsXQ6/XA+PNKFeuXOFNd7vd6OzsBMa/XObOncubHo9FixaxzSUulwunT5/mTe/v74fb7QYApKWl4b777uNNJ4SQWEw6oHt7ezEwMMD+z/RzjgW31tzd3c2bFi+r1cq2h69evRr79u0LezAn+lQqFdvd725kZWWxvyKKiorwr//6r2HrZE56AkBOTg7n2YQQEptJB3RPTw+vqWLBggVsQEaTk5MDo9EIjF/QwjQB3K1En/iLxZw5c4RFhBCScJMO6NHRUV5/59zc3Jh6ZJSWlrIBHQgERPtMx4M5CQgAH3/8MXbs2BH1IdZVbrK8Xi/799mzZ8PWIXwIuw0SQkgsJh3QGG/r7evrAwBotVp8+9vfhlqtFs7GKigowLp169gLW65du8ZrKx4eHmb/FltOTk4OdDqdsBgQBHSstXkAGBkZYXufKJXKsJ4W3Bq/UE9PD9uneu7cuRG3jRBC7kZcAe1yueB0OtmAKyws5F3UwVAoFCgrK0NNTQ17Iq+vrw+///3veV3zbt68yf4/b9483ok8hUKB1atXQ6PRsGVcV65cYe+Sl5+fj5UrVwpnEdXV1YVQKASMh7Gwp8XKlSsjBvSVK1fYZh6LxYKHHnoo5i8GQgiJVdw3S3K5XLjvvvtgNpuhUChgMBiwatUqVFRU4Bvf+AbWrl2Lxx9/HOXl5Wy4Dg0N4T/+4z9w4cIF3rJGRkZQVlaGtLQ0pKenw263w2QyoaCgAI899hiKiopw+/ZtpKSkYGRkBM3Nzbhx4wYAoKOjA4WFhTCbzUhNTUVJSQkKCgrYq/qKi4uxatUqbN68GSqVCi6XCxhvZikrK0NGRgaUSiUWLVoEi8WCefPm4ZFHHsGyZcsAgK31f/XVV2ytv7+/H2azGbm5uUhJScGCBQuwaNEiZGRkYHR0FPPmzcOqVavw2GOPIS8vL+z1EkJILOIO6JGREZw7dw6ZmZmYM2cOUlJSoFAooFarkZmZCYPBENbD48yZMzh69CivDONNBrNnz8bcuXOhUCig0Wgwf/58FBQUYNasWWhuboZSqURGRkZYQAPAX/7yF3belJQUmM1mlJSUYM2aNfjGN76B+fPnQ6fTobW1lQ3ZwcFBaDQaFBYWQqFQQKVS4b777kNhYSGys7Pxl7/8BQMDA2wtmhvQANDa2sr7gsrMzERxcTG++c1vYtmyZViwYAGMRiPa29tx/vx59nmEEBKruAMa4ycML1y4AKfTiYyMDOh0OqhUKrbWGQwG0dvbi/T0dCgUCthsNpSWluLatWvsxSOMCxcuICUlBTk5OWw7dF9fH06cOIFjx47B4XBEDOhAIIDPP/8cQ0NDMJlMSE9P521DR0cHPvvsM3z66ae8vtitra3o7e3FnDlz2G30+/04ffo0fvOb36C8vJztlicM6JGREZw9exZdXV3sNqempgLjvxR8Ph9Onz6No0ePTupiHkIIYcR1s6TJUCgUePDBB7Fx40b2fhVDQ0P4/e9/jz/84Q8xXSZOCCFydFc16FhdvXoVly5dQn5+PgwGA1JTU3H//fdj8eLFuHz5Mu/CF0IIIWOmvAZNCCEkPnF1syOEEDL1KKAJIUSiKKAJIUSiKKAJIUSiKKAJIUSiKKAJIUSiKKAJIUSiKKAJIUSiKKAJIUSiKKAJIUSiKKAJIUSiKKAJIUSiJn2zpPvvv19YRAghZApMOqAJIYRMD2riIIQQiaKAJoQQiaKAJoQQiaKAJoQQiaKAJoQQiaKAJoQQiaKAJoQQiaKAJoQQiaKAJoQQiaKAJoQQiaKAJoQQiaKAJoQQiaKAJoQQiaKAJoQQiaKAJoQQiaKAJoQQiaKAJoQQiaKAJoQQiaKAJoQQiaKAJoQQiaKAJoQQiaKAJoQQiaKAJoQQiaKAJoQQiaKAJoQQiaKAJoQQiVIsXLhwVFg4U9TU1GD58uUAAL/fj9deew1tbW3C2UgS4r63hw8fxrFjx4SzAACMRiOee+45mM3mGXEMiL1usbKpxt2vLpcLe/fuFc5CEiCuGnRNTQ327duH1157DeXl5cLJkrBz5072oJWy8vJyvPbaa9i3bx9qamrY8p07d2Lfvn2iD+585N6L5fPAzCN8VFZWCmdNCgsXLsSsWbMAAFarFbm5ucJZSALEFdCJsnPnTvz85z9P+Jubm5sLq9UKAOjo6EBdXR2ef/75pK45keTEfAEnQ2UhktzcXPz85z/Hzp072bLLly+jp6cHAODxeOizNUXuSUAbjUbs3r0b+fn5wkkJYbVaoVQqAQB9fX3w+XzCWZLG0NAQfv3rX2PHjh3sY//+/cLZiASVl5djy5YtSEtLAwA0Njby3sfGxkbhUySnvLwczz//PLRaLa/c5/Nh165d2LFjBzVvTKF7EtCEzHRGoxEbN25kw/nw4cNhX6z79++flvZikrzGqpkJUFlZiU2bNgHjNQUAvJ91zMkL7nwAoNVqUVdXxzuBI6x5DA0N4cCBAzhz5gwgOFHy6aefYtmyZdBqtTh8+DDsdjuvZp6fn499+/bB5XLhvffew7PPPhtWGxA7yZGbmxs2b0dHB1555RW2Rr5z507eurjL4T6/sbEx7MOZCMKTQ9zXzt1n3P3J3Uax8mjLZN4jq9UaVjMUvr5Y901HRwe+/vprlJaWsvt3+/btYb+uJjrBx12f8HiJROw9TtRJNm4bbUdHB5xOp3CWMNx9zxDbt5MR7X1giO2Hjo4OBAIBXvNjpM+S8HMh/Pwyy+POE2teyN2U1KCXL18edqCtW7cuprbmmpoaPPXUU7w3Ny0tDU899ZToCZW/+qu/CgvcSLhNH1z5+fm89rXKykrU1dVFXC7TJicMkfz8fOzevRtGoxGLFi1in5+Xlwej0cibN1bMa5/oxNKmTZt425OWloaNGzfGvV6ILFOr1eLZZ58N+/CVlpayJ8di2TdcZrMZpaWl7P8GgwF6vZ43DzjrFjuGhNuZlpaGLVu2RDxhhyjv8aZNmxJyEjYrK4vdRxM1szFNfsLPDMY/S2L7bSKxvg+R9kO8xD6/GH+fX3zxRdH35G7yYqabkoD2+/3Ys2cP6urq0NHRAYx/wBYtWoRjx47xypl5n3/+eVitVvbDym2vc7lcAIBVq1aFHajM83fs2IFjx45h7969+PWvf42hoSFgvMbAtJOdOXMGzz77LK8dkFk2cya6vLwcjzzyCCDS/vvll18CAJ544glotVreupl1ms1mOBwOXLp0CX6/HwBw7dq1qB/QRGBOhu7Zs4dd76xZs7Bw4ULhrDFjlsndn1qtFk1NTbw21LS0NJSUlAAx7hsh5r3etWsX2tra2LZN5nH48GGAcwwJMdsp3KaKigrhrMB4eK1btw7gHB/c5z7wwAN3HQ5z5sxh/+7q6uJNE3r88cdhNpuBCNtjNpvx+OOPC54VXSzvw0TH+r59+yJ+lsSUl5ezn1+x9UaqNETLC7mbkoD+4osv0NbWBp/Ph1OnTrHl3INWTElJCfvNu3z5crbGyNQCMjIyYDAYeM9h1jUZ3K5tzLKVSiWsVitvG5qamng/k999910YDAa2h4h2vHlm3759vFrDnDlz0NbWhueffx477vKknvCDs2P8i0jo1KlT8Pl8aGtrwxdffAGMh1RWVpZw1pgxy+Sesff7/fjkk08AABcvXmQ/vBD0nom2b7i4y+NiapX79u3jNYkJnw/OdgLAJ598wn5B6fX6sOMFAO/XDfOzfd++fWwtjjkWpoPRaEReXh4wvi/ee+89dhr3tUzmV1is78NEx/pkKxXc5R0/fpz9XJ45cwZutxuIUGmINy/kYEoCeqqIfXC+/vpr3v/RVFZWhh2o0Uxm2Vwmk0lYNOPF+pqF8w0MDKC3t5f9n/lpvmfPHrZWOd3u9osNgmNnMuE6XYTvQ7zHOplakg3ow4cP82qNO3bswLPPPjvhiZ9IjEYjVq1aBQhqpXfT1Yn705r7iPQTUGq47aSJFu++efjhh9naLdP0wf2ZPRFhF0tu+IsRdn1jHmK/UiaD28QVqWlnOsT7PhBpuOcBza0Vc38yC08SVFZWip4ci5XBYEBGRgYAwO1248yZM7yflwzuNjzyyCPsSQ2j0YhnnnkGvb298Hg8gEjbIDOP0Whka4L7JHDln8fjwfDwMCC46stutwvmvDttbW0x7ZtomJodt+mD+9NZDPfcREVFBTtvpLZfbnhyT3BivPnrySef5MwdH25TE8ZPPgqP35qaGjgcDly7dg0Yb454+OGH2encL6vJnMeI9X2Y6FgXvld6vT6sjIu7PO57Ul5eDpvNBgDo6enB5cuXec8jkYV3aZgGPp8PfX19MJvNSBvvpfDEE0/gtddeg9vtRn5+Ptt2xsWcLIpHb28vBgYGoNVq2XZHMWfOnEFJSQmWL1/ObttTTz0FjNdGAKChoQE2mw1paWlhZ6CZecR6ccT6AeMSbgM4XZZixXxgI+3XRIpl30TT1dU16e00m83Ys2cPr6yjowMffPABr4zBhKfYewxOty+mK9hQjN32hPbv3w+TycSe59i0aROvPR3jx/QHH3yAvLw8mM3msH2GCV5LJLG8D7Ec68yXe1paGrufmW52Qtzlib0nQ0ND+Oijj+L6HMjVPatBv/nmm6If2L1794oGcUeMfUkj8fl8eOutt9iaE8Y/iGJNHPv37xf9Wc10lzpz5gx+8pOfiG4/c8JquntxTES4vzs6OnDw4MGw13i3Ytk30ezfv5/tWYMYt/PTTz/lva/MF1i0dUV6j7k1d+Yk1d3U+vbu3cvrWcPl9/tx6dIl+MavyhM7FhsbG7Fr166or0VMrO9DpP3AHOttbW147733wqZHEml5HR0d+MlPfjLpLzm5m9F3syMkXkbO3dru9mIRQuJ1z2rQhEgZc85iaGgIFy9eFE4mZFpQDZoQQiSKatCEECJRFNCEECJRFNCEECJRFNCEECJRFNCEECJRFNCEECJRFNCEECJRFNCEECJRFNCEECJRFNCEECJRFNCEECJRFNCEECJRFNCEECJRFNCEECJRFNCEECJRFNCEECJRFNCEECJRFNCEECJRFNCEECJRFNCEECJRFNCEECJRFNCEECJRFNCEECJRFNCEECJRFNCEECJRFNCEECJRFNCEECJRFNCEECJRioULF44KC+UkPT0dGo0GSqUSCoVCOJmQCY2OjmJ4eBiBQACDg4PCyYTETdY1aJ1OB4PBAJVKReFM4qZQKKBSqWAwGKDT6YSTCYmbbAM6PT0dWq1WWEzIXdFqtUhPTxcWExIX2Qa0RqMRFhGSEHRskUSRbUArlUphEYki06DGyz90YFtVsXBSwq2wW/DLugq8unM1cq164eR7YoXdgtdeWIMVdotwUhg6tkiiyDagqc15cp7ZXIIMjRLHP3cLJ90T26qKpzXATze3w9Ppx5OVhROuk44tkiiy7cWRk5MjLMK2qmI47FZhMYZCt/HORy043dwunCQL26qKUVaUE7YPIu0vxkAghFd+24Q2T59w0l3bVlUMe4FpypYvJtOgxo+2LgEA/Oyd8+juDQpnYXm9XmERIZNGAc0RKYjkLNeqx3PfLUXzlS68fehL4WRWrPMlyr0IaIw3dWzdWIRzLd6or5MCmiRC0gV0dXU1HA4HAMDpdOLgwYPCWWISb0CvsFvwfz+yEP/f7y/jweU25NsMAADvrUBYrYoJrQyNirME4MP6q/j4s2sRQy1S+AhrrM5mD+95dTVLodOqeNvBBMrRk9fx8WfX2Hk3rMnDY2vns/+73L3Ys/9P7P+MSNsiFOm1TAazrWmqsZY34T6NtD8ZYjX2aPtsw5o8rHPYcNzpxvrV8xAaHsFbh77Ek5WFyMnSRNwndTVLYTFpwtbFRQFNEiGp2qCrq6tRUVEBtVoNtVqNiooKVFdXC2ebcsrUFDxdtQjebj+2767HS2+cRYZGiWc2l7DzrLBb8A9PlaH5She2767H9t31eOvQJQyFbvOWFau6mqWwF5jw0htn2WWVFeXEddJuW1Ux1q+eh7cOXWK332LSoK5mKW++TIMa+XNnob0rEDGIEul0czt+sKcB23fXw+XuFU5Gm6cPtXtPYvvuejibPRgIhNj9sX13PWr3nuRtZyz7TKVMxapSK35zpAUA8LffLoLrRg+czR5YTBrR9uYLrV3I0KhgLzQJJxGSUEkV0EzNeaKy6eBy97I1sTZPH9q7AtBpVcg0qAEADy63wdcXxAd/dAmeOXkr7BbYLDocd7rZADrd3I5zLV7YC0yiIRJJrlUPe4EJ51q87K+ENk8fjjvdsFl0vF4KC+cZYdSrcaG1i7OE5BDrPktTpcB1oweeTj8AYCg0wr5nKmUqZpvD+8o3t3ZhIBCCNZu605GplVQBPR3SVGO14zd3rWUfYr0FooVWrlUPi0kD142eqCeSYlVSkIXQ8AiaBev0dAYihkgk9kITVMpUXLxyi1fe6QsAALKNd0KH+ZuZlkxi3WdDodu8fdHvD034nvX5hzAQGEZOZuz7nZB4JFVAO51OYZFo2d0YCt1mf/pH+uk83XIytcjQqPDj7y3jfXFw25BjZc3WiH4JPV21iG37nQkSuc8IuVeS6hN58OBBNDQ0IBgMIhgMoqGhIe6ThMnE2+0Pa29lHj/Y0xDxhKYYT2dA9EuIeXBPJCazRO4zQu6VpApojId0bW0tamtrJRvOkX4CP7jcNmEtlTkxxyX8WT4ZJQVZvHWKNWVEMpl5p9tE+2Si6XdDr01DhkYJb/dYuzUhUyV6WpC4dPcG4brRwzvptq2qGNZsLa8XBxPk+XNnIdOgZi+EyMniB+Kpppvw9QUnvIrN2+2HUa/GwnlGQKSLGcZPlLnb+7F+9bwJL1u+fN0HX18QiyXYW4H58nhwuU04CZjEPouHvdCEDI0Kns7ka5snySXVZDL9k7BQDjIyMoRFKCs2Y95sPcqKzXi0Yj77qFw1D109g7jhHYDNokPpwmy0tvWgtc3HPnfNkjlIU6XiVJMHg8ERnG/pROnCbDy0woZHK+ZjKHQb/9lwlffcweAIrrT1oGLpnPE+ufeh+UoXzl7qwAKbAZ9faEdP/xAGgyM4ccaNJUVmPLb2znY9WjEfJQtMOHn+JgCErTNNlYq3Dn0Je0EWXO5edntPnr+J2WYtbzmPVsyHw27F+ZYODAZHAACDwRHMn6tHvs2AS65u9PQPsa9XaJZOjZWlVnhvBXC+pVM4OSbbqorx939jx6MV85FpUCNDo8I6x314tGI+crI0vOXe8A5AoVBgZamV3f6Hym3sdsayzxbOM6Iw14imy53o94ewstSKgcAwTp6/ibJiM2ZnZ6DpcidueAd427n54QUIDd/Ge//Vyu4roYEB/nMIiUfSXaiSKGazedrvmRDpohEpYy4Oae8KiF60ITexvIejo6Po6OgQFhMyabJt4hgeHhYWERFtnj40X+lCvs2ADWvyhJNlJdOgxqMV8+HrC+JU09ivFjF0bJFEkW1ABwLUfhirtw99CZe7N6Z265mMuaPf6+9/EbWvNB1bJFFkG9CDg4Pw++ksfKx+9f5F+PqCKCnIEk6ShRV2C6zZWrx7rDVqn3i/30/jEpKEkW0bNIMGjSV3iwaNJVNF9gFNCCFSJdsmDkIIkToKaEIIkSgKaEIIkSgKaEIIkSgKaEIIkSjZ9+KgbnZTh7qfEXJ3ZF2D1ul0MBgMUKlUFM5TQKFQQKVSwWAwQKfTCScTQiYg24BOT0+HVpv4ewUTcVqtFunp6cJiQkgUsg1ojUZ6N6Gf6WifEzI5sg1opVIpLCJRZBrUePmHDmyrKo6pXAztc0ImR7YBTW3Ok8Pcye34525eeXdvEKeaPHDYrRPejpT2OSGTI9teHDk5Obz/mRuxC8cMdLl7ZX+j+m1VxSgrysE7H7VEHGw1lnkAwOv1CosIIRHItgYdyYf1V9nRn1964ywsJg1e3bk64ePaJYtcqx72AhPOtXijBu8Hf3TB1xdkh6sihNy9pBuTsLq6Gk8//TQqKythNBpx8eJF4SwxEY5JKDbWYE//ELr7gigrykHeHD079h8E4+eJjZmH8XB7cUc5vvPwAt6YeLdvA61tPnb6XEsG77nbqorxt98uChsHcKJ11tUsxSPfnMcbV3CF3YL/vW0ZFAoFbwzFDWvy8MLfLQkbp09o87oFsGRpceDj1qhjEg4GR6BRK7F0kRkDgWHeurhorD5CYpdUNejq6mpUVFRArVZDrVajoqIC1dXVwtkSihkF22LSsLXoupqlsBeY8NIbZ7F9dz3eOnQJZUU5vBNlK+wW/MNTZWi+0sXWyN86dIk3qvdkxLLOWG2rKsb61fPw1qFLvF8KdTVLefNlGtTInzsL7V2BqDepZzS3dmEgEJLkKOCEJKOkCmiHwyEsEi2bCiplKmabtVhht8Bm0eG4082G1unmdpxr8cJeYGJD/MHlNvj6gvjgjy7BkiYv1nXGQqzJos3Th+NON2wWHW9Iq4XzjDDq1bjQ2sVZQmRtnj60dwWg06qomYOQBEiqgL5XvN13hsYqKchCaHgEzYLQ8nQG2BDPtephMWngutETdey6WMWyzljZC01QKVNx8cotXnmnb2wcvWzjnb7KzN/MtFh4u/3I0Cih16YJJxFCJimpAtrpdAqLRMsSLSfzTgDmZGqRoVHhx99bhjd3rWUfj62dz3tOIiVyndZsDdJUKXi6ahFvWU9XLQrrwUIIubeS6hN58OBBNDQ0IBgMIhgMoqGhAQcPHhTOllCZBjV0WhV8fUFcvu6Dt9uPgUCIbQvmPn6wpyFqT4d4JXKdns4AhkK32fZn4ePjz64Jn0IIuUeSKqAxHtK1tbWora2d8nAGgFWls5GTdae5IpZmhT7/EAYCw7yaN8bbpSeqpTIn5rhiWWckJQVZvHWKNWVEMpl5GTmZWgwEhtHnj9zjgxASm+hpIXMb1uThsbXz4b0VYE/2nWq6CV9fEE9WFkY8OdfdG4TrRg/vpNu2qmJYs7W8XhxMkOfPnYVMgxqZBjV+tHUJcrL4gRjLOjFe0zbq1Vg4zwiMr9Nht/LmYXqlrF89j3dCUMzl6z74+oIx98pg2t77/aGEtL0TInd0JeE4sSsJh0K3I14ZV1ezFPk2A69MeNUhdx6XuxcnGt3YurEIR09eZ5sScq16PPfdUmRoVAAAZ7MHns4A1jlseOW3TbzubZNdp/dWAO8ea8XTVcU47nTzmi/Ewtt7K4CfvXOeF67bqophLzCFbYuYDWvysH71vIj7DHQlISGTItuANpvN035vCOZLgBvQUsd8gbR3BaJe8s7U/vv9oYjzjY6OoqOjQ1hMCIlAtk0cw8PDwiIios3Th+YrXci3GaLeDOnxh/Jh1KtxopF/MyUu2ueETI5sAzoQiL1vr9y9fehLuNy9EdutN6zJg8NuxdGT1yM2bYD2OSGTJtuAHhwchN9/5wIUEt2v3r8IX18QJQVZvPJMgxqrSq1wNnuiNtv4/X4al5CQSZJtGzSDBo2dOjRoLCF3R/YBTQghUiXbJg5CCJE6CmhCCJEoCmhCCJEoCmhCCJEoCmhCCJEo2ffikEs3O+ryRkjykXUNWqfTwWAwQKVSzehwBgCFQgGVSgWDwQCdTiecTAiRINkGdHp6OrTayd9feSbQarVIT08XFhNCJEa2Aa3RxH4T+plI7q+fkGQg24BWKpXCommXaVDj5R86UFezVDhpQtuqivHyDx280bOZ5W2rKubNK0YKr58QEp1sAzqZ25yZu8edavLwbq7f3RvEqSYPHHZr1FuDIslfPyFykWoymf5JWCgHGRkZvP8zDWr8ePtyPFlZiEcr5rOPh8ptuOTqRk9/4sfY06iVWFU6G0Oh2zh5/qZwsqgVdgs2P1yAxkvteO8PV4ST0drmQ06WBn9VNhddPYO44R0QzsIaGIg8jRBy78m2Bh2Jy93LjnD9wqunMBAYxo+/t2zCGul0eXC5Db6+IDtGopgP/uiCry+IRyvm85pACCHJJelq0NXV1Xj66adRWVkJo9GIixcvCmeJibAGLVabHQyO4EpbD5YtMsNq0uJ8SwcGgyPAeBvw3/+Nna1p52RpcL6lk7dMYa28ctU8Xq1WbJ25Vj1e3FGO7zy8IGyZK+wWrCmbgxONN3ChtYstFxoMjkCjVmLpIjMGAsNobfMJZwGoBk2I5CVVDbq6uhoVFRVQq9VQq9WoqKhAdXW1cLaEYkbe5qqrWQp7gQkvvXEW23fX461Dl1BWlMM7OZdr1eMn31+Ofn+IrZGfa/Fi68Yi0VFJwBn/DwBeeuMs3j70JW96SUEWQsMjaI4Szozm1i4MBEIxj8hNCJGepApoh8MhLBItSyS9Ng0ZGiX6/SF09waxwm6BzaLDcaebHeX6dHM7zrV4YS8wIdeqBwCsW2kDABw4epldFtP08ODysWlcmQY1vr/5AQAQHUE706BG/txZaO8KhE0T0+bpQ3tXADqtipo5CElSSRXQ040bmkzQRqrFejoDUClTMdusjRim3b1B9PtDYaGpUqXgR1uXIEOjFA1ncL4ovN2xD9Pl7fYjQ6OEXpsmnEQISQJJFdBOp1NYJFp2N/JtBry5ay3e3LUWP61dhX5/CLV7T7KhmZOpRYZGhR9/bxk735u71uKxtfPZZTBhyl0W88i3GThrG3OfRYecLA0GAsPo8ye+twghJDkl3c2Sqqur2WYNp9OJgwcPCmeJSU5ODu//TIMaP9q6BP3+EPbs/xNvGte2qmLYC0wRa7qYxLK4851odGPrxiL4+oL42Tvnef2bwWmfbr7SFdY2HclE2+r1eoVFhBAJSaoaNAAcPHgQtbW1qK2tjTuc7wa3KSOSSE0Z0ZxubsfRk9eRk6XBM5tLhJPZk5U5mZHXK5STqaVaOSFJLOkC+l471XQTvr4gnqwsZE8IijnR6IZRrxYN20g+/uwanM0e5NsMYZdrd/cG4brRA4tJE3W9jFyrHhaThj25SQhJPknXDzpRYukHLWYwOIITZ9xYUmTGY2vvXHH4aMV8lCwwsc+94R3AxSu3sM5hw3ceXsCb7/btsSv+xNZ5vqUTJQtMsBeaeMsDgDRVKsqKctA7MBSxbzNj9ZI5KMrLxIf/xxXxakLqB02ItCVdG3SimM3mpLwfRV3NUlhMmojtyoixDXx0dBQdHR3CYkKIhMi2iWN4mH/xSbI40eiGSpmKLesXCiexHn8oH0a9Gica3cJJrGR9/YTIiWwDOhAICIuSAnMyUaydGpw73R09eR2nm9uFk1nJ+voJkRPZBvTg4CD8/tgv+pAS9mTi3Flh94NeVWqFs9mDjz+7xnsOl9/vp3EJCUkCsm2DZtCgsYQQqZJ9QBNCiFTJtomDEEKkjgKaEEIkigKaEEIkigKaEEIkigKaEEIkSva9OOTSzY6QZENdQ2Veg9bpdDAYDFCpVBTOhEiMQqGASqWCwWCATqcTTpYF2QZ0eno6tNrY761MCLl3tFot0tPThcUznmwDWqPRCIsIIRImx8+sbNugk/V2o3LC3DbVdaMn5mG+yNTbsCaPNwany90b8ba2sairWQoAEy5DjrfIle0N++XappVM/t8t30CmQY0DH7eip3/qhu1aYbfgf29bBoVCMeFACGRssIkjDddw8vxNlC7MjjrIxbaqYvztt4twydUd8T0MDd/GmrI5mG3W4nxLp3AyS6FQyG6QCdnWoIWDxm6rKobDbuWVcQ0EQlFvkh+PSOv8sP5q1LvRycG2qmKUFeXgnY9aot42NRFW2C3YurEIR09ej3u/C2uVQkOh29PyWqZTLANDTDRwMYPZfxMd+3Ib6JgCWkQ8I2jHQ+zgZQ7Uu/3ZmMyma/8zEhHQXLEE10wQy+sUO8YjiWW0IApoiauurobD4QAAOJ3OuEf2jjegudM8nQFerYn59mdC1tnsCXs+9yBct9ImevAyNWthbUJY4xZbPhM2aao753+5tbdIr03sg8R8AHOyxk7OiNUC62qWQqdV4WfvnGcHp40UeLFsPyJsi5BwWcIvtEjbwN3eZzaXIN9mYKcJCfd/rGIJronEcpwxYnmfkKB9xh2AONLrZLY9Q6Niy7gi/Rpl1n+uxSt6XECGAZ1UvTiqq6tRUVEBtVoNtVqNiooKVFdXC2ebFg67FescNrz0xlls310PZ7MH61fPwwq7BaeabsJ7KxB2Q31mpO32rkDYwcl1/HM3BgIhLC40sWV1NUthLzCx63vr0CWUFeXwRlXZsCYPT1ctwtGT17F9dz22767Hh/VX2emTkWvV4yffX45+f4hd1rkWL7ZuLMIKu0U4+4Ri2X6Mf+jz586KuI8yDWq8/EMHb1kvvXEWFpMGL//QwdvfE9mz/0/stgyFbuPD+qvsa92+uz6ucE60aMcZJvE+MU1Gbx26xM7n7fZjw5o8ztoSo83Th9q9J9ntHQiE2O3fvrsetXtPir63l6/74OsLhn1u5CypApqpOU9UNh28twJ48fVG9kC7eOUWACDbqEF3bxCuGz0w6tVYOM/IPsdeaIJKmRp1rEAunVaFTIMaK+wW2Cw6HHe62fWdbm7HuRYv7AUm5Fr17GgqLndvQoJl3UobAODA0cts2Qd/dMHXF8SDy8emxSqW7WcsnGeEUa/GhdYuzhLuWFU6G0a9Gu8ea2WX1ebpw3GnGzlZGqwqnS18SlKLdpxhEu9TTqYWvr4gLl+/cxL07UNfJuRYSRTmc5OhUUKvTRNOlqWkCmgp6feHeD/3Tje34wd7GtgDnvkglRRksfMsLjSFfUjE9PmHMBC4M6hrSUEWQsMjaBaElqczAJUyFbPN2gmDbTIi1WK7e4Po94fYL45YxbL9DCZ4On3iYyYuLjQhNDyCmx384cqaW7swEAjBmj2z+spGO84m8z55u/3IydLgR1uXTOq9m25ix4ScJVVAO51OYZFomRScbm6Hu72f/bnGNG+cavLwPnBi9No0ZGiU7P85mVpkaFT48feW4c1da9lHtF4Dd4NZf77NwFvfm7vWRm2zjSTR2z8QGEafX7zLVk6mfD7Yk3mf3j70JT6sv4qcLA1+WrsKb+5ay/Y/JtKVVAF98OBBNDQ0IBgMIhgMoqGhIe6ThNPhQmsX28xhH29PFtYixcw2a6FSpsJ1owfdvUF4u/1h7XjM4wd7GsJOBt0tpgbvcveGrW/77nr84y+cE37JcE3n9nu7k3Mg4HhM9n36+LNr7DSXuxf5NgOFtMQlVUBjPKRra2tRW1sr6XAGgFNNN+HrC6KkIAuLC01hP0UjYdoOmWaSWH723ezwIzQ8wvuJz7RLT4T5qcwQ+4k8GSUFWbxeJLFsP4Np2mCaOoS4X3pcTPs+s8/EML9ihMT2XTK4m/dpz/4/weXunfC5kfZZrCbz3gOANVsj2oQlV0kX0MmEOenhsFths+hiOjlYV7MU+TYDzrV42ZolE/RPVhbyTqhxtXn60N4V4J10e2ZzCXRaFYZHbrPzMbUupuklU9BFi3Gi0Q2jXo1nNpfwyoW83X5eYAq7ciHG7WcwZ/K5PVi4mGU9WjGfDZZcqx7rHDa42/vZfcaELrOcaF2/mH0iPGGZDGJ5nzINatTVLOW9NiZ4uW3ck9lnsWK+cGM5scxUFKI1YclN0vWDTpS77Qfd3hWIqY8r07fT1xcM60cqFmbeW4Gw+RhMeHNx+7IKw9bZ7IGnM4D1q+fx+sUKP3jMfOscNl7/VOF8DGE/XO52eW8F8O6xVjxdVYzjTnfE+RjCvriIoR+08HUiQp9qYZ/wD+uvwpqtQf7cWWH7WOy1Cl9nrJjtE/YPnozJHGdi2w7B9ovNE+8+E3sfGWL7THiV5UT9oIX9sLnk1g9atgE9XTdLiqXz/VTasCYvLKClbjLhRGaOSBfEMOR4syTZNnEMD9/pxjaVmC5mxz+fuHmDjGnz9KH5ShfybYYpuZCCSM+GNXnItxmi9nKars+slMg2oAMB8X62ibRhTR4cdivvAg0Sm7cPfQmXu5d31RyZmVbYLVi/eh6czZ6ITRuYps+s1Mg2oAcHB+H3T82Z4m1VxWw/X7E2ORKbX71/ke0FQ2auB5ePneCN1gTo9/tlOS6hbNugGTRoLCHSRIPGUkATQohkybaJgxBCpI4CmhBCJIoCmhBCJIoCmhBCJIoCmhBCJEr2vTiomx0hsaFub9NP1jVonU4Hg8EAlUpF4UzIBBQKBVQqFQwGA3Q6nXAymQKyDej09HRotbHdo5YQwqfVapGeni4sJgkm24DWaOK/CTkhhD5D00G2bdDTdbtRqYn3XsXM81w3eqLeM4FML+H9m6PdTzwWG9bkhd0XPBI53v5zusm2Bi3HcL4bz2wuQYZGOeW3Tc216vHqztXYVlUsnEREMKN8M+MMRrOtqhiv7lwdddSYU003MRAYxvc3PxB1KCzQZ2hayLYGLRxRRWx0E65Io0DcDWHthyE2ykiixFOD3lZVjLKinGm56X+00WxiJTZ6iJDYaCLJbqIb3k80Ug1jMgMmyG2Ek+mWajKZ/klYKAcZGRm8/8+3dOJIwzUcabiGpq+6sGyRGedaOvDi64040nANx061oac/seOk2Sw6lC7MxpFPr+Hnv/0zjjRcg/dWAGvK5uCvV96HS67uhK9To1ZiVelsDIVu4+T5m8LJYXKtejy2dj6aLo/tn6k2S6fGylIrvLcCON/SKZwck57+IRw71ca+nzlZGmQa1PjnX5/H7z7+CkcarsW9bClbs2QO0lSpONXkwWBwRDgZZcVmWLK0+PxCe9Tjqqd/CKmpKVhZasXt20Brm084C2tgYEBYRBIo6WrQ1dXVcDgcAACn0xn3yN7CGjRXtFocd5qnM8Aba4259zMzBptYLa2uZiksJg1e+W0TZpu1omOwRXq+sJYvnA6R2qOw5i9Wg+Y+R7jMWGpdwl8CwnVGGmuOW+N7/KH8qL9ghNs1GbG8hmi4++xEo5v3WoXbJRwvcSh0W/SXRyL2mbCWLDZNeDwICdfLYF4HANF1MagGPbWSqg26uroaFRUVUKvVUKvVqKioQHV1tXC2aeGwW7HOYcNLb5zF9t31cDZ72NE/TjXdhPdWgB05m5E7PpJye1cg7APB1ekLYCh0ZyRujH/47AUmdn1vHbqEsqIcXlvtCrsF//BUGZqvdGH77nps312P9q4AnvtuacR2R+YDDAAvvXE2LGzy586Kur3bqorxdNUiHD15nbfOf3iqbFIjobx96Ets312Pl944i4FACM5mD7u87bvr4w7nRMq3GbB1YxHe+agF23fX48P6q3DYreywXLlWPX7y/eXo94fY7T7X4sXWjUW8fcEdp5KZ791jrdj88ALO2hKjzdOH2r0n2WN0IBBij6Htu+tRu/ek6HvLjEjPHbGdTL+kCmim5jxR2XTw3grgxdcb2YP74pVbAIBsoybiwW0vNEGlTMWJxugn2rKNGqSpUuDpHBviZ4XdAptFxxs663RzO861eGEvMLHh++ByG3x9QXzwRxe7rANHLwMA1q0MH/Y+06DG9zc/AACitaiF84ww6tW40NrFK2fkWvWwF5jChio6cPQyQsMjeHB5+DqT2UAghH/+9Tm2Ntzc2oWBQAjW7LHaMrOPmX0OAB/80QVfX5C3L7KNY/MzxwzG389Xfvdn9n8p4B7T5N5IqoCWkn5/iPezjzmbzgQVc3Bzh2taXGiCry+Iy9cjt+kx47O53L3sspiBZ5sFQenpDEClTMVss5atnbtu9PC2q88/hIHAMHIy+RflqFQp+NHWJcjQKEXDGZwPZqdPfCw4e6EJGRoV+0XCaPP0ob0rAJ1WNWFPgGQyEBhGn/9O2y1TO3370JcRf2109wbR7w/x9gWzP4U1a6m52eFHaHiE/QIi0y+pAtrpdAqLRMuk4HRzO9zt/WwzBxOgYqMWP7Z2Pt7ctRZv7lrLNhdwz57nZGqRoVHhx99bxs7HjHnImG3WQqVMhcNu5c3z09pVbHso130WHXKyNGGhM1lDodsRAzxDo4RemyYsnpH02jRkaJTItxl4+//NXWuRbzPw5j3d3I5//vU5hIZH8HTVIry5a+2E3d+IPCVVQB88eBANDQ0IBoMIBoNoaGiI+yThdLjQ2sU2c9gLTcD4z2KhD+uv8tpbhYPMerv9YW2HzOMHexpwurmdre0I226Zh7C7lMvdi7cOXYJRP3YyaCpquncb/smE+aXicveG7fvtu+vxj79w8r6YuW3DH9ZfRYZGFfVcAZGnpApojId0bW0tamtrJR3OGO/0z4xKvbjQFPbzN1bcpoxIIjVlRHO6uR1HT15HTpYGz2wuEU5ma8aR2iCbW7sQGh4JG3U7UnMLFzOPUDyvQwrEmjJi9fFn1/Bh/dUJ3+NI+yxWsRxHXMyvMmETFpk+SRfQyYQ5WeiwW2Gz6CY8ORgJE/RPVhZGrGF19wZxqsmDfJthUlfhffzZNTibxZ93+boPvr4gFo/X/oXaPH1ovtKFsqIcXlvqlvULAYC96pCp3TPLidb1iwk6m0Un6fZZMSca3TDq1aJfdlzbqorZnh+MxYUmhIZHcLPDD0xyn8WK+cKN9eQt88UbqQmLTD26UEVEtIslmGkDgeGYLvRIU6WipGDs5OCRT6/xLiBgLlRpbeuJejHAYHAEJ864saTIjMfWzsejFXceJQtM7Ha0tvngvRVA5ap5qHown52nctU8dPUM4oZ3QPRClfMtnShZYIK90MRb3mBwBPPn6pFvM0S8aOZ8Sydmm7W8bQoN38ae/X9Ce9dY2PT0D6G7L4g1ZXNQ9WA+KpbOwdGTbfD1B5FpSA+7sOKLv9xCWbEZa8rmsMvMydKEvRexivUCjUiYfQYgbFu5bngHcPHKLaxz2PCdhxfw9gn3go/zLZ3Y/PAC/O23i+56n22rKsbf/40dj1bMR6ZBjQyNCusc94nusxveASgUCqwstbLrfajcJvreZhrU2LAmD52+QRz8QytvGhddqDK1ku5ClUSZrpslcfu8SqEv72QxNbdYLvslM8eGNXlYv3qe6EU2DLpZ0tSTbRPH8PCwsGhKMF3kpvomQ1OFacbItxnCfpaTmSnXqsc6hw3u9v6I4Yxp/AzJmWwDOhCY+na1DWvy4LBbeReYJKO3D30Jl7uXvVKSzFzMxUsDgWH86v2Lwsk80/EZkjvZBvTg4CD8/rH2vkTbVlXM9lNm7s+R7H71/kW2RwqZuVaVzkaGRonX3/8iYg8cAPD7/TQu4TSQbRs0gwaNJSQ2NGjs9JN9QBNCiFTJtomDEEKkjgKaEEIkigKaEEIkigKaEEIkigKaEEIkSva9OKibHZkO1EWNxEPWNWidTgeDwQCVSkXhTKaUQqGASqWCwWCATqcTTiZElGwDOj09HVptbPfFJSSRtFot0tPThcWEhJFtQGs08d/4nJC7RccfiYVs7wet1+tnbLPGhjV5eOHvlsBht+J8S0fE+xdPhVyrHi/uKEdqakrUe1wnQl3NUvztt4vC7nt8L9XVLMWaJXMmvFd4SkrKlN0Lhswcsq1BSymct1UVz4hBQ7l3QjvVFD2gpktdzVK8/EPHpIehiteJRjdsFl3Y6DRCUjr+iHTJthdHTk6OsIhVV7OUNxKz91YAP3vnfNS7e92NbVXFsBeY8Mpvm5L6tqR1NUthMWl4ryOWoZqczZ4pG8ygrmYpdFrVlL5/QhvW5MV0J0Ov1yssIoRHtk0cYkNeMT/PdVoV/vnX5/G7j7/CkYZrGAiEsMJuFR2ROxHudkgmKVhht2BN2Rz84dT/4OylO8HT0z+EY6facKThGo40XENOlgaZBjVv/05l88SaJXOQpkqNOlRVorW2+VCywITFC02iw0kxaLgoMpGkq0FXV1fD4XAAAJxOZ9wje4vVoMVqgJEIa9nCWuC2qmLkz52Fd4+14umqYrYGycw3Uc1yIBDibUemQY0fbV2CnKw7J5eE62RqbgyXuzdsmCpmvcedblizNXDYrYDI+rjzMts4FLodcQikWGuqifi1INz3wpoqM8xYmkq8BU/4i0j4OoX7oq5m6djzuv1w2K1wuXtxotHNrkO4fsQ41BnVoMlEkqoGXV1djYqKCiiVSiiVSuTl5UGv1+PixegjP4gR1qCZYX7auwJhHzYuppatUCjw4uuN+Pf/usIO1Fq6MJs9OVRWbMb9eZkoKzLjwNHL2PcfF3H7NvDwivtw+zZw9pKXrVmK1SqPnWrj1bz+/v+y45PT/4N9/3ERRxquscviniBrbfPhSMM1nDx/E6ULs3kDwzKYQW8XF5owFLqNF149hZPnb2L5AxYsW5TDnlTkjkX4wquncKThGi5euYVN/2s+vvjLLV5tlNl3X13vxqkmD299Qon4tXDy/E0cabgG760ASgpMYYPu3vAO4OjJ6zjScA0lC0wIDd9m36sjDddw4oyb3f4Vdgt+8IQdTZc78eLrjTjScA1LisxY57gzmOqaJXNgzdZiMDiC//6zB0sX5aAw14jD/8cFi0mLTIM6bD/7B4dRVmxGpiE94olaqkGTiYhXMSSKqTlPVBYPe6EJGRoVLkzQjLFu5diQ9dwRJ043t+Ncixc2iy5sSKijJ6+zNc7m1i4MBEKwZk++i9Urv/szr+Z6qukmvLcCyJ87K64TYN5bAXZIo+7eIFw3epChUUKvTQMAzDZroVKm8vZHm6cPe/b/KayGbC80QaVMxcUrt3jlyeDB5Tb4+oL44I8utuzA0csA570GAGVqCv57/MRnmioFLddu4c9fjX0x6rSqsPdAbJ8SMllJFdD3WqZBjfy5szAQGEafn1/7Y8Ip23gnfAcCoSlrt+7uDaLfHxIWx8x1oycsaLludvgRGh7BY2vnTzhYrDVbg9DwCG52JFe3sVyrHhaTJmxf9PmHMBAYRk7mnQuZfH1BXL5+p5bu6Zx4PD5PZwAqZSpmm+mCKBKfpApop9MpLBItm2r9/lDEcIundhyLFXYLfllXgTd3rWUf3HbYRGvz9OHF1xvhvRXAY2vn481da/HLuoqwXwjJjPmV4LBbefv1p7WreG39hNwrSRXQBw8eRENDA4LBIILBIBoaGuI+SSjU6QtgKHQbiwtNwkmTEkvNarKYE07u9n5s313PPlzuXuGsCdXdG8Q//sKJ7bvr8dahSwCArRuLZkxIM78SnM0e3n5lHsITrIRMt6QKaIyHdG1tLWpraxMWzgBw+boPvr4gLCZNxAtGmHZFsXlKCrIQGh6Jq0ljop/CzEjaJxrdwknT5nRzO975qAUQNOMghu2/l7zd/ojtwGJNGYmUrE0/RDqSLqCnSndvEP/ZcBUqZSqe+24pL4BX2C3Ysv5+AMDxz8dCcsv6hbzpZUU5aL7SFVfXsU7fWK37weV3TkpxeToDSFOlsEGdaVDj5R86prSJY8OavLCr4Zj1M9vLaG7tQmh4hJ0uJZ7OADI0Kt4JP0Z3bxCnmjzItxnCXuvdina+gpBYJVU3u0QSdrPDePeszy94sPwBC9avnodHK+bj0Yr5sFl0+M2RFgwGR9DTP4RLrm6sc9jwnYcX4NGK+SgrNuPIp9fw3h+usMsS607GdHHz3grwLs644R2AQqHAylIru86Hyu9082pt8yEna6zP8qMV87HOcR+OO91IU6XyLsJg7k2xznEfMjRjPQuY5d2+PdYNL9I2CLe3tc2HsmIz/v5v7OwyMg1q/Ow3f8YlF7+3Rk//EJYUmWExaSN2KWMI1zNZTDfH7zy8AGXFZqSmKlA0PzNsnzGE++7Rivm8e5S0tvnYbpJVD+az81SumoeunkHc8A7wLna5z6pH0fxMtFzz4X/a+7GqdDYAhF0IU7owGyvsVpxovBGxZxB1syMTSboLVRLFbDbT/RASKJYLM+Rkogt3RkdH0dHRISwmhEe2TRzDw8PCInIXTje3w93ej7KinBlzEjFeG9bkId9mwKkmj2g4g44/EiPZBnQgkPjeFnL3q/cvwtcXxJOVhWEnUeVihX2seczZ7Il6RSodfyQWsg3owcFBuh9vgnX3BvH6+18A41cXytGDy21wt/dHbebx+/00LiGJiWzboBk0aCyZDjRoLImH7AOaEEKkSrZNHIQQInUU0IQQIlEU0IQQIlEU0IQQIlEU0IQQIlGy78VB3ez4qDsYIdIh6xq0TqeDwWCASqWicB6nUCigUqlgMBig0+mEkwkh00i2AZ2eng6tdmruAzxTaLVapKenC4sJIdNEtgGt0dCQRrGg/UTIvSPb+0Hr9fq4mjUyDWr8ePtyPFlZGHbfYKlh7p2cmpqC1rY7A56usFvwwt+Vobs3OOF2p6Sk0D1LCLlHZFuDjiecIRin78P6q8LJkpFpUOP7mx/AQGAYp5pu8qadbm6Hp9Mf013n4t1PhJC7J9uAjqauZilvlOeXf+hApkEtnE3SntlcggyNEq+//4XoPYl/9f5FDASG8f3NDyTdayNELiigOXKtery6czUsJg1eeuMsO7rzfzZcxfrVecLZJWuF3QKbRYfjTnfEMRKZMRiNejUefyhfOJkQIgFJ1w+6uroaDocDAOB0OuMe2TsnJ0dYhLqapbCYNHjlt00Rg41rw5o8rF89D+981ILTze3Cycg0qPGjrUuQkzV2om0odFt03rqapbwBYF3uXuzZ/yf2/1yrHs99txTNV7rg6QzgsbXz2Wkf1l8NuzH8RMMtccXymr1er7CIEDINkqoGXV1djYqKCqjVaqjValRUVKC6ulo4W1xyrXpYTBq0dwUiBtVk5Fr1+Mn3l6PfH2Jr4udavNi6sYg3JNS2qmJcaO1i53nr0CXYLDrU1SzlLQ8AHHYr1jlsbO3e2ezB+tXzeMtjXofrRs+E4QwAF1q7kKFRyfYG+4RIWVIFNFNznqgsHvZCEzI0qogjME/WupU2AMCBo5fZsg/+6IKvL4gHl49NA4C3D33JqwEzY/tZTJqwE3jeWwG8+Hoj+wVy8crY6NrZxjtd4eyFJqiUqey0iTS3dmEgEII1m7rTESI1SRXQySLToEb+3FlhtfHu3iD6/SHotKqoJ+a83eLd2vr9IV6t+HRzO36wp4EX8NZsDULDI7jZIb4MoT7/EAYCw8jJpIt2CJGapApop9MpLBItu9f02jRkaJTItxl4vUHe3LWW19YMzolJ7jwOu5U3DyFEnpIqoA8ePIiGhgYEg0EEg0E0NDTEfZJQqNMXwFDoNhYnoC2WqZW63L1s2zL38Y+/cKK7N8ie/BsIDOOFV0+x053NHuEiCSEylFQBjfGQrq2tRW1tbcLCGQAuX/fB1xcUbfudrFibMph271NNnphO6MXC0xmASpmK2ebYmiyY2n6kZhVCyL2TdAE9VZh+wSplKp77bikvpFfYLdiy/n7e/BM50eiGUa/GM5tLhJNYYrX2upqld9XE0dzahdDwCEoKsoSTRDFfEp7OgHASIeQeS7p+0Iki1g8aIn2XMd57gulTvMJuwdaNRUhThX+3cecDp/9yhkbFm4/bd3nDmjxev2amecNeYGL7JjPLae8K8PpHRzLZftATzUv9oAm5N2Qb0GazecbeZ4L5EjnX4sXbh74UTmYx8x09eT3sYhfG6OgoOjo6hMWEkGkQXg2UieHhYWHRjMH0pS4ryuFdxMKVaVDj0Yr58PUFw26mxDWT9xMhUifbgA4EZnab66/evwhfXzDiHesmupkSY6bvJ0KkTLYBPTg4OKPvc9zdG8Tr738BjJ8I5Fpht8CarcW7x1qjXtbu9/tpXEJC7iHZtkEzaNBYPho0lhDpkH1AE0KIVMm2iYMQQqSOApoQQiSKApoQQiSKApoQQiSKApoQQiRK9r04ZkI3O+oaR8jMJOsatE6ng8FggEqlStpwBgCFQgGVSgWDwQCdTiecTAhJUrIN6PT0dGi1sd0zOZlotVqkp6cLiwkhSUi2Aa3RzNxBUmfyayNETmQb0EqlUlg0Y8zk10aInMg2oJOxzbmuZile/qEj6jBaSNLXRggJJ9uAjqauZilvlO1YQpEQQhKNApoj16rHqztXw2LS4KU3zrKjbP9nw1WsX50nnJ0QQqZU0vWDrq6uhsPhAAA4nc64R/YWG5OwrmYpLCYNOxZgNHU1S5FvM7D/O5s9vOGltlUV88YVBGeMwuYrXXj70Jfs/8edblizNexgsQOBEPu8aGMgQmQcRLacxhEkJOmlmkymfxIWSlV1dTUqKiqgVCqhVCqRl5cHvV6PixcvCmedUEZGBu//XKse6xw2tHcFIo7Ph/H5XtxRDoVCgRdfb8S//9cVeG8FULlqHkoXZuPk+bHho8qKzbBkafH5hXb09A8BAGbp1FhZaoX3VgDnWzrZ/xcXmjAUuo0XXj2Fk+dvYvkDFixblIPzLR248j89OHryOo40XEPJAhNCw7fZ9R5puIYTZ9wYDI4IthIYGBgQFhFCkox4tUyimJrzRGXxsBeakKFR4UJrl3ASz7qVNgDgDRV1urkd51q8sFl0EccAjMZ7K4BfvT/2JdPdG4TrRg8yNErotWnCWQkhMpJUAX2vZRrUyJ87CwOBYfT5x2rFjItXbgEAso2T74PsutET1kRBCCFJFdBOp1NYJFo21fr9oYiBas2efEATQoiYpArogwcPoqGhAcFgEMFgEA0NDXGfJBTq9AUwFLqNxYIBVifL00mjYBNCEiOpAhrjIV1bW4va2tqEhTMAXL7ug68vCItJg1yrXjgZ4LQPi81TUpCF0PAImqO0YTPt3PHydvupbZoQGUm6gJ4q3b1B/GfDVaiUqXjuu6W8AF5ht2DL+vsBAMc/dwMAtqxfyJteVpSD5itdbJc6T2cAGRoV7OM18g1r8vDY2vnsc+LBLJM5UUkImdmSrh90ooj1g8b4icAfbV2CnKw7bcnCvsZM/2VubfjD+qth3fO2VRXz+ja/dehLPFlZCNeNHl4/aKZfNPd5wj7U3GnMMiGybWw59YMmJOnJNqDNZvOMvWfF6OgoOjo6hMWEkCQj2yaO4eFhYdGMMZNfGyFyItuADgRmbm+LmfzaCJET2Qb04OAg/H6/sDjp+f1+GpeQkBlCtgENAP39/ejt7UUoFMLoaPI2xY+OjiIUCqG3txf9/f3CyYSQJCXbk4SEECJ1sq5BE0KIlFFAE0KIRFFAE0KIRFFAE0KIRFFAE0KIRMm+F0d6ejo0Gg2USuWMvfR7MkZHRzE8PIxAIED9qQm5x2Rdg9bpdDAYDFCpVBTO4xQKBVQqFQwGA3Q6nXAyIWQayTag09PTodVqhcWEQ6vVIj09XVhMCJkmsg1ojYaGpooF7SdC7h3ZtkFPdLtR4Q32BwIh0fszJ5tI96COhG5dSsi9I9sadCzh7Gz2YPvuemzfXY/avSeTPpzjEW0/xWrnzp3YuXOnsDhmNTU12L17N4xGY0zlhMwUsg3oaBYXmjAQCLHDWxFCyL1AAR3BQGAYff4hYTGZJjU1NaipqREWEyIrSdcGXV1dDYfDAQBwOp1xj+wdaUxCAKirWQqdViU61h+jrmYp8m0G9n9ns4fXprthTR7Wr56Hdz5qwYPLbey8Ym3ZwvZul7sXe/b/if0fEcZKFK6TIRy3kDsftw0aAG/MROF2MSYa3zA3NxfPPvssr1fM4cOHAQCbNm3izDl2v+rXXnsNbW1twHgQL1++nDf97NmzWLZsGT755BNUVlYiLe3OKOZDQ0P4/PPPsXLlyrDyAwcO4MyZM8B4s0p+fj47/fDhwzh27Bj7PyHJIKkCurq6GhUVFbyyhoaGuEJaGNDCUBNiQo4JuIHAMBvgK+wWbN1YBHd7Pxus3NBlApcJWQDsc7dVFaOsKAfvfNSC083t7PLbuwK8kH7u//kG/rvpJk43t/OWzw1fZvlGvZpdHgBsWX8/rvyPj7f8DI2KHXAWAH60dQn6/aGwLwZMENBMOH/xxRfYv38/AKCyshIA2EBk2p/37t3LPs9oNOK5555DRkYGL7B37twJm83GC9uamhrk5eXhlVdegc/nY5chVs4sFwBbXllZiU2bNlFIk6STVE0cTM15orJ4vH3oS/aEoMvdC++tAF549RRbxoTgupU2AMDr73/B1q5PN7fjXIsXNosOK+wW3nKdzR429Lp7g3Dd6EGGRgm9Ng25Vj3sBSaca/GyYdrm6cNxpztsWa/87s/sPABwqukmvLcCyJ87C5kGNQBgVenssHAGgANHv+L9D8Fo4Mx2WUwa5Fr1vPkmYrWOfaldvHiRLTt27NiEQehwOMLCuby8HDabDWlpaWFfxLFyOByYNWsWPvroIza0jx07BpfLhVWrVtEJRZJUkiqg77VMgxr5c2eJtk9fvHILAJBt5Pcb9nTyxwd8+9CXbI8Qe6EJKmUq+1xGp2/sOcJlcXX3BtHvD/HKFhea4OsL4vL1O7XMSFw3eiI23wjl5ubi5z//Ofbt28c+mN4THo8HAPDEE08gNzdX+NSI7HY7PB4PL5yfeOIJHDhwAI2NjbBarZNaHsNut8PtdrO1b0ZXVxcyMjJgMNxpliJE6pIqoJ1Op7BItGyq9ftDEcPNmh05VIWs2RqkqVLwdNUivLlrLft4umoR0lT8t2aF3YJf1lXw5uO2gWca1NBpVVG3LV5tbW14/vnnsWPHDvaxa9cu+Hw+tLW14aWXXsLAwADq6uqwb98+tokjEqPRCL3+Tk09NzcXTzzxBI4fPx4WrJPBLDc/P5/3ZbJv3z5eOzchySKpAvrgwYNoaGhAMBhEMBiMu/15KglrzNF4OgMYCt3GW4cusU0p3MfHn10DxsOZaePmTne5e9llMTVqnVbFNnlMF5/Ph127dmHHjh1obGzEpk2bovbA8Pl86OsbOxnJtGEfP358wmaRiTDLdblcvC8T5vH888+zNXZCkkFSBTTGQ7q2tha1tbXTHs7R2mpLCrIQGh5Bc+tY74hYxNKUgfFlA8CJxuj9sr3dfhj1aiycd+/aWffv3w+XywWTySScxNPV1QWbzcaeYGTC2Wg0Ii8vj9f8MRldXV1xN48QIjVJF9D3GnPxypb1C9myFXYLyopy0HylS7SbWiSnm9vhbu/H+tXzwk4ucnk6A0hTpbBBnWlQ4+UfOnhNHBjfttDwCJ6sLOR9gWxZf3/U5d+N8vJyPPnkk+z/ubm5sFqt6Oq680UlFpqffPIJhoeHMTAwgA8++IAt3759OzIyMvDee++xZV9//TVmzZqFhQvv7PNI5Z988gkA4Omnn+adEKysrJyw6YUQqUmqbnaJJOxmxzVRP2huVzXGh/VX2SYJcLrBCcvFiHXx4/ayEJvnw/qrWFxoCtvOifpLR7oXx7aqYtgLTKJ9oaN1sysvL8eWLVt4fZIbGxvZLncQ9JNm+kE/8cQT6Orqgslk4vVX7ujoCOtOx3SdM5vNvP7OsZRHWy4hUifbgJ7oZklkzFTcLKm8vBzr1q3DL3/5SwpMQqKQbUBnZmZCpbpTAybiQqEQuru7hcWEkGkg2zboQCD23hZyRvuJkHtHtgE9ODgIv98vLCYcfr+fxiUk5B6SbUADQH9/P3p7exEKhTA6KsuWnjCjo6MIhULo7e1Ff3+/cDIhZBrJtg2aEEKkTtY1aEIIkTIKaEIIkSgKaEIIkSgKaEIIkSgKaEIIkSgKaEIIkSgKaEIIkSgKaEIIkSgKaEIIkSgKaEIIkSgKaEIIkSgKaEIIkSgKaEIIkSgKaEIIkahJ3270/vvvFxYRQgiZApMOaEIIIdODmjgIIUSiKKAJIUSiKKAJIUSiKKAJIUSiKKAJIUSiKKAJIUSiKKAJIUSiKKAJIUSiKKAJIUSiKKAJIUSiKKAJIUSiKKAJIUSiKKAJIUSi/n90iuLCXO6+9wAAAABJRU5ErkJggg==;" vertex="1" parent="1">
                    <mxGeometry x="52" y="-176" width="303.61" height="330.6" as="geometry"/>
                </mxCell>
                <mxCell id="18" value="5" style="whiteSpace=wrap;html=1;aspect=fixed;fillColor=#dae8fc;strokeColor=#6c8ebf;" vertex="1" parent="1">
                    <mxGeometry x="372" y="269" width="80" height="80" as="geometry"/>
                </mxCell>
                <mxCell id="19" value="1" style="whiteSpace=wrap;html=1;aspect=fixed;fillColor=#fff2cc;strokeColor=#d6b656;" vertex="1" parent="1">
                    <mxGeometry x="52" y="269" width="80" height="80" as="geometry"/>
                </mxCell>
                <mxCell id="20" value="2" style="whiteSpace=wrap;html=1;aspect=fixed;fillColor=#fff2cc;strokeColor=#d6b656;" vertex="1" parent="1">
                    <mxGeometry x="132" y="269" width="80" height="80" as="geometry"/>
                </mxCell>
                <mxCell id="21" value="3" style="whiteSpace=wrap;html=1;aspect=fixed;fillColor=#fff2cc;strokeColor=#d6b656;" vertex="1" parent="1">
                    <mxGeometry x="212" y="269" width="80" height="80" as="geometry"/>
                </mxCell>
                <mxCell id="22" value="4" style="whiteSpace=wrap;html=1;aspect=fixed;fillColor=#fff2cc;strokeColor=#d6b656;" vertex="1" parent="1">
                    <mxGeometry x="292" y="269" width="80" height="80" as="geometry"/>
                </mxCell>
                <mxCell id="23" value="" style="edgeStyle=none;html=1;" edge="1" parent="1" source="16" target="18">
                    <mxGeometry relative="1" as="geometry">
                        <mxPoint x="92" y="52" as="sourcePoint"/>
                        <mxPoint x="92" y="98" as="targetPoint"/>
                    </mxGeometry>
                </mxCell>
                <mxCell id="25" value="5" style="whiteSpace=wrap;html=1;aspect=fixed;fillColor=#fff2cc;strokeColor=#d6b656;" vertex="1" parent="1">
                    <mxGeometry x="427" y="448" width="80" height="80" as="geometry"/>
                </mxCell>
                <mxCell id="26" value="2" style="whiteSpace=wrap;html=1;aspect=fixed;fillColor=#fff2cc;strokeColor=#d6b656;" vertex="1" parent="1">
                    <mxGeometry x="187" y="448" width="80" height="80" as="geometry"/>
                </mxCell>
                <mxCell id="27" value="3" style="whiteSpace=wrap;html=1;aspect=fixed;fillColor=#fff2cc;strokeColor=#d6b656;" vertex="1" parent="1">
                    <mxGeometry x="267" y="448" width="80" height="80" as="geometry"/>
                </mxCell>
                <mxCell id="28" value="4" style="whiteSpace=wrap;html=1;aspect=fixed;fillColor=#fff2cc;strokeColor=#d6b656;" vertex="1" parent="1">
                    <mxGeometry x="347" y="448" width="80" height="80" as="geometry"/>
                </mxCell>
                <mxCell id="29" value="&lt;b&gt;DeQueue()&lt;/b&gt;" style="text;html=1;align=center;verticalAlign=middle;whiteSpace=wrap;rounded=0;fillColor=#dae8fc;strokeColor=#6c8ebf;" vertex="1" parent="1">
                    <mxGeometry x="60" y="375" width="64" height="30" as="geometry"/>
                </mxCell>
                <mxCell id="30" value="1" style="whiteSpace=wrap;html=1;aspect=fixed;fillColor=#dae8fc;strokeColor=#6c8ebf;" vertex="1" parent="1">
                    <mxGeometry x="52" y="448" width="80" height="80" as="geometry"/>
                </mxCell>
                <mxCell id="31" value="" style="edgeStyle=none;html=1;" edge="1" parent="1" source="29" target="30">
                    <mxGeometry relative="1" as="geometry">
                        <mxPoint x="624" y="271" as="sourcePoint"/>
                        <mxPoint x="586" y="323" as="targetPoint"/>
                    </mxGeometry>
                </mxCell>
                <mxCell id="32" value="Array[]" style="text;html=1;align=center;verticalAlign=middle;whiteSpace=wrap;rounded=0;fillColor=#f8cecc;strokeColor=#b85450;" vertex="1" parent="1">
                    <mxGeometry x="507" y="-13" width="60" height="30" as="geometry"/>
                </mxCell>
                <mxCell id="33" value="&lt;p data-end=&quot;93&quot; data-start=&quot;0&quot;&gt;&lt;font style=&quot;font-size: 24px;&quot;&gt;&lt;strong style=&quot;&quot; data-end=&quot;8&quot; data-start=&quot;0&quot;&gt;FIFO&lt;/strong&gt;&amp;nbsp;&lt;/font&gt;&lt;/p&gt;&lt;p data-end=&quot;93&quot; data-start=&quot;0&quot;&gt;&lt;strong data-end=&quot;43&quot; data-start=&quot;18&quot;&gt;&lt;font style=&quot;font-size: 20px;&quot;&gt;&quot;First In, First Out&quot;&lt;/font&gt;&lt;/strong&gt;&lt;/p&gt;&lt;p data-end=&quot;93&quot; data-start=&quot;0&quot;&gt;&lt;font style=&quot;font-size: 20px;&quot;&gt;prinsippet som brukes i en &lt;strong style=&quot;&quot; data-end=&quot;92&quot; data-start=&quot;78&quot;&gt;queue (kø)&lt;/strong&gt;:&lt;/font&gt;&lt;/p&gt;" style="text;html=1;align=left;verticalAlign=middle;whiteSpace=wrap;rounded=0;fillColor=#d5e8d4;strokeColor=#82b366;" vertex="1" parent="1">
                    <mxGeometry x="558" y="133" width="189" height="163" as="geometry"/>
                </mxCell>
            </root>
        </mxGraphModel>
    </diagram>
</mxfile>